<svg width="24" height="24" viewBox="0 0 24 24" fill="none" xmlns="http://www.w3.org/2000/svg">
<rect width="24" height="24" fill="#1E1E1E"/>
<g id="Home | Ballecoffee" clip-path="url(#clip0_1_5)">
<rect width="1440" height="1354" transform="translate(-176 -439)" fill="#1F1517"/>
<g id="Hero Banner" clip-path="url(#clip1_1_5)">
<rect width="1440" height="407" transform="translate(-176 -371)" fill="#181012"/>
<g id="Hero Text">
<g id="Frame 1">
<g id="Frame 1_2">
<g id="Explore dezenas de varia&#195;&#167;&#195;&#181;es da bebida favorita entre os devs ao redor mundo!">
<path d="M-14.2386 -8V-22.5455H-5.46023V-20.983H-12.4773V-16.0682H-5.91477V-14.5057H-12.4773V-9.5625H-5.34659V-8H-14.2386ZM-1.26278 -18.9091L1.35085 -14.4489L3.96449 -18.9091H5.89631L2.37358 -13.4545L5.89631 -8H3.96449L1.35085 -12.233L-1.26278 -8H-3.1946L0.271307 -13.4545L-3.1946 -18.9091H-1.26278ZM8.288 -3.90909V-18.9091H9.90732V-17.1761H10.1062C10.2293 -17.3655 10.3997 -17.607 10.6175 -17.9006C10.8401 -18.1989 11.1573 -18.464 11.5692 -18.696C11.9859 -18.9328 12.5494 -19.0511 13.2596 -19.0511C14.1781 -19.0511 14.9878 -18.8215 15.6886 -18.3622C16.3893 -17.9029 16.9362 -17.2519 17.3292 -16.4091C17.7222 -15.5663 17.9187 -14.572 17.9187 -13.4261C17.9187 -12.2708 17.7222 -11.2694 17.3292 -10.4219C16.9362 -9.57907 16.3917 -8.92566 15.6957 -8.46165C14.9996 -8.00237 14.1971 -7.77273 13.288 -7.77273C12.5872 -7.77273 12.0262 -7.88873 11.6048 -8.12074C11.1834 -8.35748 10.859 -8.625 10.6317 -8.9233C10.4045 -9.22633 10.2293 -9.47727 10.1062 -9.67614H9.96413V-3.90909H8.288ZM9.93572 -13.4545C9.93572 -12.6307 10.0565 -11.9039 10.2979 -11.2741C10.5394 -10.6491 10.8922 -10.1591 11.3562 -9.80398C11.8202 -9.4536 12.3884 -9.27841 13.0607 -9.27841C13.7615 -9.27841 14.3462 -9.46307 14.815 -9.83239C15.2885 -10.2064 15.6436 -10.7083 15.8803 -11.3381C16.1218 -11.9725 16.2425 -12.678 16.2425 -13.4545C16.2425 -14.2216 16.1242 -14.9129 15.8874 -15.5284C15.6554 -16.1487 15.3027 -16.6387 14.8292 -16.9986C14.3604 -17.3632 13.771 -17.5455 13.0607 -17.5455C12.3789 -17.5455 11.806 -17.3726 11.342 -17.027C10.878 -16.6861 10.5276 -16.2079 10.2908 -15.5923C10.0541 -14.9815 9.93572 -14.2689 9.93572 -13.4545ZM22.1516 -22.5455V-8H20.4755V-22.5455H22.1516ZM29.6534 -7.77273C28.6686 -7.77273 27.8045 -8.0071 27.0611 -8.47585C26.3224 -8.9446 25.7448 -9.60038 25.3281 -10.4432C24.9162 -11.286 24.7102 -12.2708 24.7102 -13.3977C24.7102 -14.5341 24.9162 -15.526 25.3281 -16.3736C25.7448 -17.2211 26.3224 -17.8793 27.0611 -18.348C27.8045 -18.8168 28.6686 -19.0511 29.6534 -19.0511C30.6383 -19.0511 31.5 -18.8168 32.2386 -18.348C32.982 -17.8793 33.5597 -17.2211 33.9716 -16.3736C34.3883 -15.526 34.5966 -14.5341 34.5966 -13.3977C34.5966 -12.2708 34.3883 -11.286 33.9716 -10.4432C33.5597 -9.60038 32.982 -8.9446 32.2386 -8.47585C31.5 -8.0071 30.6383 -7.77273 29.6534 -7.77273ZM29.6534 -9.27841C30.4015 -9.27841 31.017 -9.47017 31.5 -9.85369C31.983 -10.2372 32.3404 -10.7415 32.5724 -11.3665C32.8045 -11.9915 32.9205 -12.6686 32.9205 -13.3977C32.9205 -14.1269 32.8045 -14.8063 32.5724 -15.4361C32.3404 -16.0658 31.983 -16.5748 31.5 -16.9631C31.017 -17.3513 30.4015 -17.5455 29.6534 -17.5455C28.9053 -17.5455 28.2898 -17.3513 27.8068 -16.9631C27.3239 -16.5748 26.9664 -16.0658 26.7344 -15.4361C26.5024 -14.8063 26.3864 -14.1269 26.3864 -13.3977C26.3864 -12.6686 26.5024 -11.9915 26.7344 -11.3665C26.9664 -10.7415 27.3239 -10.2372 27.8068 -9.85369C28.2898 -9.47017 28.9053 -9.27841 29.6534 -9.27841ZM37.1552 -8V-18.9091H38.7745V-17.2614H38.8881C39.087 -17.8011 39.4469 -18.2391 39.9677 -18.5753C40.4885 -18.9115 41.0756 -19.0795 41.729 -19.0795C41.8522 -19.0795 42.006 -19.0772 42.1907 -19.0724C42.3754 -19.0677 42.515 -19.0606 42.6097 -19.0511V-17.3466C42.5529 -17.3608 42.4227 -17.3821 42.2191 -17.4105C42.0202 -17.4437 41.8095 -17.4602 41.587 -17.4602C41.0567 -17.4602 40.5832 -17.349 40.1665 -17.1264C39.7546 -16.9086 39.4279 -16.6056 39.1864 -16.2173C38.9497 -15.8338 38.8313 -15.3958 38.8313 -14.9034V-8H37.1552ZM48.8384 -7.77273C47.7873 -7.77273 46.8806 -8.00473 46.1183 -8.46875C45.3607 -8.9375 44.7759 -9.59091 44.364 -10.429C43.9568 -11.2718 43.7532 -12.2519 43.7532 -13.3693C43.7532 -14.4867 43.9568 -15.4716 44.364 -16.3239C44.7759 -17.1809 45.3488 -17.8485 46.0827 -18.3267C46.8214 -18.8097 47.6831 -19.0511 48.668 -19.0511C49.2362 -19.0511 49.7972 -18.9564 50.3512 -18.767C50.9052 -18.5777 51.4094 -18.2699 51.864 -17.8438C52.3185 -17.4223 52.6808 -16.8636 52.9506 -16.1676C53.2205 -15.4716 53.3555 -14.6146 53.3555 -13.5966V-12.8864H44.9464V-14.3352H51.6509C51.6509 -14.9508 51.5278 -15.5 51.2816 -15.983C51.0401 -16.4659 50.6945 -16.8471 50.2447 -17.1264C49.7996 -17.4058 49.274 -17.5455 48.668 -17.5455C48.0004 -17.5455 47.4227 -17.3797 46.935 -17.0483C46.4521 -16.7216 46.0804 -16.2955 45.82 -15.7699C45.5595 -15.2443 45.4293 -14.6809 45.4293 -14.0795V-13.1136C45.4293 -12.2898 45.5714 -11.5914 45.8555 -11.0185C46.1443 -10.4503 46.5444 -10.017 47.0558 -9.71875C47.5671 -9.42519 48.1613 -9.27841 48.8384 -9.27841C49.2788 -9.27841 49.6765 -9.33996 50.0316 -9.46307C50.3915 -9.59091 50.7016 -9.7803 50.962 -10.0312C51.2224 -10.2869 51.4237 -10.6042 51.5657 -10.983L53.185 -10.5284C53.0146 -9.97917 52.7281 -9.49621 52.3256 -9.07955C51.9232 -8.66761 51.426 -8.34564 50.8342 -8.11364C50.2423 -7.88636 49.5771 -7.77273 48.8384 -7.77273ZM65.6495 -7.77273C64.7404 -7.77273 63.9379 -8.00237 63.2418 -8.46165C62.5458 -8.92566 62.0013 -9.57907 61.6083 -10.4219C61.2153 -11.2694 61.0188 -12.2708 61.0188 -13.4261C61.0188 -14.572 61.2153 -15.5663 61.6083 -16.4091C62.0013 -17.2519 62.5482 -17.9029 63.2489 -18.3622C63.9497 -18.8215 64.7594 -19.0511 65.6779 -19.0511C66.3881 -19.0511 66.9492 -18.9328 67.3612 -18.696C67.7778 -18.464 68.0951 -18.1989 68.3129 -17.9006C68.5354 -17.607 68.7082 -17.3655 68.8313 -17.1761H68.9734V-22.5455H70.6495V-8H69.0302V-9.67614H68.8313C68.7082 -9.47727 68.533 -9.22633 68.3058 -8.9233C68.0785 -8.625 67.7541 -8.35748 67.3327 -8.12074C66.9113 -7.88873 66.3503 -7.77273 65.6495 -7.77273ZM65.8768 -9.27841C66.5491 -9.27841 67.1173 -9.4536 67.5813 -9.80398C68.0453 -10.1591 68.3981 -10.6491 68.6396 -11.2741C68.881 -11.9039 69.0018 -12.6307 69.0018 -13.4545C69.0018 -14.2689 68.8834 -14.9815 68.6467 -15.5923C68.4099 -16.2079 68.0595 -16.6861 67.5955 -17.027C67.1315 -17.3726 66.5586 -17.5455 65.8768 -17.5455C65.1665 -17.5455 64.5747 -17.3632 64.1012 -16.9986C63.6325 -16.6387 63.2797 -16.1487 63.043 -15.5284C62.811 -14.9129 62.695 -14.2216 62.695 -13.4545C62.695 -12.678 62.8133 -11.9725 63.0501 -11.3381C63.2915 -10.7083 63.6467 -10.2064 64.1154 -9.83239C64.5889 -9.46307 65.176 -9.27841 65.8768 -9.27841ZM78.5259 -7.77273C77.4748 -7.77273 76.5681 -8.00473 75.8058 -8.46875C75.0482 -8.9375 74.4634 -9.59091 74.0515 -10.429C73.6443 -11.2718 73.4407 -12.2519 73.4407 -13.3693C73.4407 -14.4867 73.6443 -15.4716 74.0515 -16.3239C74.4634 -17.1809 75.0363 -17.8485 75.7702 -18.3267C76.5089 -18.8097 77.3706 -19.0511 78.3555 -19.0511C78.9237 -19.0511 79.4847 -18.9564 80.0387 -18.767C80.5927 -18.5777 81.0969 -18.2699 81.5515 -17.8438C82.006 -17.4223 82.3683 -16.8636 82.6381 -16.1676C82.908 -15.4716 83.043 -14.6146 83.043 -13.5966V-12.8864H74.6339V-14.3352H81.3384C81.3384 -14.9508 81.2153 -15.5 80.9691 -15.983C80.7276 -16.4659 80.382 -16.8471 79.9322 -17.1264C79.4871 -17.4058 78.9615 -17.5455 78.3555 -17.5455C77.6879 -17.5455 77.1102 -17.3797 76.6225 -17.0483C76.1396 -16.7216 75.7679 -16.2955 75.5075 -15.7699C75.247 -15.2443 75.1168 -14.6809 75.1168 -14.0795V-13.1136C75.1168 -12.2898 75.2589 -11.5914 75.543 -11.0185C75.8318 -10.4503 76.2319 -10.017 76.7433 -9.71875C77.2546 -9.42519 77.8488 -9.27841 78.5259 -9.27841C78.9663 -9.27841 79.364 -9.33996 79.7191 -9.46307C80.079 -9.59091 80.3891 -9.7803 80.6495 -10.0312C80.9099 -10.2869 81.1112 -10.6042 81.2532 -10.983L82.8725 -10.5284C82.7021 -9.97917 82.4156 -9.49621 82.0131 -9.07955C81.6107 -8.66761 81.1135 -8.34564 80.5217 -8.11364C79.9298 -7.88636 79.2646 -7.77273 78.5259 -7.77273ZM85.2802 -8V-9.27841L91.4734 -17.233V-17.3466H85.479V-18.9091H93.6325V-17.5739L87.6097 -9.67614V-9.5625H93.8313V-8H85.2802ZM100.674 -7.77273C99.6232 -7.77273 98.7165 -8.00473 97.9542 -8.46875C97.1966 -8.9375 96.6119 -9.59091 96.1999 -10.429C95.7927 -11.2718 95.5891 -12.2519 95.5891 -13.3693C95.5891 -14.4867 95.7927 -15.4716 96.1999 -16.3239C96.6119 -17.1809 97.1848 -17.8485 97.9187 -18.3267C98.6573 -18.8097 99.5191 -19.0511 100.504 -19.0511C101.072 -19.0511 101.633 -18.9564 102.187 -18.767C102.741 -18.5777 103.245 -18.2699 103.7 -17.8438C104.154 -17.4223 104.517 -16.8636 104.787 -16.1676C105.056 -15.4716 105.191 -14.6146 105.191 -13.5966V-12.8864H96.7823V-14.3352H103.487C103.487 -14.9508 103.364 -15.5 103.118 -15.983C102.876 -16.4659 102.53 -16.8471 102.081 -17.1264C101.636 -17.4058 101.11 -17.5455 100.504 -17.5455C99.8363 -17.5455 99.2586 -17.3797 98.771 -17.0483C98.288 -16.7216 97.9163 -16.2955 97.6559 -15.7699C97.3955 -15.2443 97.2653 -14.6809 97.2653 -14.0795V-13.1136C97.2653 -12.2898 97.4073 -11.5914 97.6914 -11.0185C97.9802 -10.4503 98.3803 -10.017 98.8917 -9.71875C99.4031 -9.42519 99.9973 -9.27841 100.674 -9.27841C101.115 -9.27841 101.512 -9.33996 101.868 -9.46307C102.227 -9.59091 102.538 -9.7803 102.798 -10.0312C103.058 -10.2869 103.26 -10.6042 103.402 -10.983L105.021 -10.5284C104.85 -9.97917 104.564 -9.49621 104.162 -9.07955C103.759 -8.66761 103.262 -8.34564 102.67 -8.11364C102.078 -7.88636 101.413 -7.77273 100.674 -7.77273ZM109.417 -14.5625V-8H107.741V-18.9091H109.36V-17.2045H109.502C109.758 -17.7585 110.146 -18.2036 110.667 -18.5398C111.188 -18.8807 111.86 -19.0511 112.684 -19.0511C113.423 -19.0511 114.069 -18.8996 114.623 -18.5966C115.177 -18.2983 115.608 -17.8438 115.916 -17.233C116.224 -16.6269 116.377 -15.8598 116.377 -14.9318V-8H114.701V-14.8182C114.701 -15.6752 114.479 -16.3428 114.034 -16.821C113.589 -17.304 112.978 -17.5455 112.201 -17.5455C111.666 -17.5455 111.188 -17.4295 110.767 -17.1974C110.35 -16.9654 110.021 -16.6269 109.779 -16.1818C109.538 -15.7367 109.417 -15.197 109.417 -14.5625ZM122.651 -7.74432C121.959 -7.74432 121.332 -7.87453 120.768 -8.13494C120.205 -8.40009 119.758 -8.78125 119.426 -9.27841C119.095 -9.7803 118.929 -10.3864 118.929 -11.0966C118.929 -11.7216 119.052 -12.2282 119.298 -12.6165C119.545 -13.0095 119.874 -13.3172 120.286 -13.5398C120.697 -13.7623 121.152 -13.928 121.649 -14.0369C122.151 -14.1506 122.655 -14.2405 123.162 -14.3068C123.825 -14.392 124.362 -14.456 124.774 -14.4986C125.191 -14.5459 125.494 -14.6241 125.683 -14.733C125.877 -14.8419 125.974 -15.0313 125.974 -15.3011V-15.358C125.974 -16.0587 125.783 -16.6032 125.399 -16.9915C125.02 -17.3797 124.445 -17.5739 123.673 -17.5739C122.873 -17.5739 122.246 -17.3987 121.791 -17.0483C121.337 -16.6979 121.017 -16.3239 120.832 -15.9261L119.241 -16.4943C119.526 -17.1572 119.904 -17.6733 120.378 -18.0426C120.856 -18.4167 121.377 -18.6771 121.94 -18.8239C122.509 -18.9754 123.067 -19.0511 123.616 -19.0511C123.967 -19.0511 124.369 -19.0085 124.824 -18.9233C125.283 -18.8428 125.726 -18.6747 126.152 -18.419C126.583 -18.1634 126.94 -17.7775 127.224 -17.2614C127.509 -16.7453 127.651 -16.054 127.651 -15.1875V-8H125.974V-9.47727H125.889C125.776 -9.24053 125.586 -8.98722 125.321 -8.71733C125.056 -8.44744 124.703 -8.2178 124.263 -8.02841C123.822 -7.83902 123.285 -7.74432 122.651 -7.74432ZM122.906 -9.25C123.569 -9.25 124.128 -9.38021 124.582 -9.64062C125.042 -9.90104 125.387 -10.2372 125.619 -10.6491C125.856 -11.0611 125.974 -11.4943 125.974 -11.9489V-13.483C125.903 -13.3977 125.747 -13.3196 125.506 -13.2486C125.269 -13.1823 124.994 -13.1231 124.682 -13.071C124.374 -13.0237 124.073 -12.9811 123.78 -12.9432C123.491 -12.91 123.257 -12.8816 123.077 -12.858C122.641 -12.8011 122.234 -12.7088 121.855 -12.581C121.481 -12.4579 121.178 -12.2708 120.946 -12.0199C120.719 -11.7737 120.605 -11.4375 120.605 -11.0114C120.605 -10.429 120.821 -9.98864 121.251 -9.69034C121.687 -9.39678 122.239 -9.25 122.906 -9.25ZM138.437 -16.4659L136.931 -16.0398C136.837 -16.2907 136.697 -16.5346 136.512 -16.7713C136.333 -17.0128 136.086 -17.2116 135.774 -17.3679C135.461 -17.5241 135.061 -17.6023 134.574 -17.6023C133.906 -17.6023 133.35 -17.4484 132.904 -17.1406C132.464 -16.8376 132.244 -16.4517 132.244 -15.983C132.244 -15.5663 132.395 -15.2372 132.699 -14.9957C133.002 -14.7543 133.475 -14.553 134.119 -14.392L135.738 -13.9943C136.714 -13.7576 137.44 -13.3954 137.919 -12.9077C138.397 -12.4247 138.636 -11.8021 138.636 -11.0398C138.636 -10.4148 138.456 -9.85606 138.096 -9.36364C137.741 -8.87121 137.244 -8.48295 136.605 -8.19886C135.966 -7.91477 135.222 -7.77273 134.375 -7.77273C133.262 -7.77273 132.341 -8.0142 131.612 -8.49716C130.883 -8.98011 130.421 -9.68561 130.227 -10.6136L131.818 -11.0114C131.969 -10.4242 132.256 -9.9839 132.677 -9.69034C133.103 -9.39678 133.66 -9.25 134.346 -9.25C135.127 -9.25 135.748 -9.41572 136.207 -9.74716C136.671 -10.0833 136.903 -10.4858 136.903 -10.9545C136.903 -11.3333 136.77 -11.6506 136.505 -11.9062C136.24 -12.1667 135.833 -12.3608 135.284 -12.4886L133.466 -12.9148C132.467 -13.1515 131.733 -13.5185 131.264 -14.0156C130.8 -14.5175 130.568 -15.1449 130.568 -15.8977C130.568 -16.5133 130.741 -17.0578 131.086 -17.5312C131.437 -18.0047 131.913 -18.3764 132.514 -18.6463C133.12 -18.9162 133.806 -19.0511 134.574 -19.0511C135.653 -19.0511 136.501 -18.8144 137.116 -18.3409C137.736 -17.8674 138.177 -17.2424 138.437 -16.4659ZM150.903 -7.77273C149.994 -7.77273 149.192 -8.00237 148.496 -8.46165C147.8 -8.92566 147.255 -9.57907 146.862 -10.4219C146.469 -11.2694 146.273 -12.2708 146.273 -13.4261C146.273 -14.572 146.469 -15.5663 146.862 -16.4091C147.255 -17.2519 147.802 -17.9029 148.503 -18.3622C149.204 -18.8215 150.013 -19.0511 150.932 -19.0511C151.642 -19.0511 152.203 -18.9328 152.615 -18.696C153.032 -18.464 153.349 -18.1989 153.567 -17.9006C153.789 -17.607 153.962 -17.3655 154.085 -17.1761H154.227V-22.5455H155.903V-8H154.284V-9.67614H154.085C153.962 -9.47727 153.787 -9.22633 153.56 -8.9233C153.332 -8.625 153.008 -8.35748 152.587 -8.12074C152.165 -7.88873 151.604 -7.77273 150.903 -7.77273ZM151.131 -9.27841C151.803 -9.27841 152.371 -9.4536 152.835 -9.80398C153.299 -10.1591 153.652 -10.6491 153.893 -11.2741C154.135 -11.9039 154.256 -12.6307 154.256 -13.4545C154.256 -14.2689 154.137 -14.9815 153.901 -15.5923C153.664 -16.2079 153.313 -16.6861 152.849 -17.027C152.385 -17.3726 151.813 -17.5455 151.131 -17.5455C150.42 -17.5455 149.829 -17.3632 149.355 -16.9986C148.886 -16.6387 148.534 -16.1487 148.297 -15.5284C148.065 -14.9129 147.949 -14.2216 147.949 -13.4545C147.949 -12.678 148.067 -11.9725 148.304 -11.3381C148.545 -10.7083 148.901 -10.2064 149.369 -9.83239C149.843 -9.46307 150.43 -9.27841 151.131 -9.27841ZM163.78 -7.77273C162.729 -7.77273 161.822 -8.00473 161.06 -8.46875C160.302 -8.9375 159.717 -9.59091 159.305 -10.429C158.898 -11.2718 158.695 -12.2519 158.695 -13.3693C158.695 -14.4867 158.898 -15.4716 159.305 -16.3239C159.717 -17.1809 160.29 -17.8485 161.024 -18.3267C161.763 -18.8097 162.625 -19.0511 163.609 -19.0511C164.178 -19.0511 164.739 -18.9564 165.293 -18.767C165.847 -18.5777 166.351 -18.2699 166.805 -17.8438C167.26 -17.4223 167.622 -16.8636 167.892 -16.1676C168.162 -15.4716 168.297 -14.6146 168.297 -13.5966V-12.8864H159.888V-14.3352H166.592C166.592 -14.9508 166.469 -15.5 166.223 -15.983C165.982 -16.4659 165.636 -16.8471 165.186 -17.1264C164.741 -17.4058 164.215 -17.5455 163.609 -17.5455C162.942 -17.5455 162.364 -17.3797 161.876 -17.0483C161.393 -16.7216 161.022 -16.2955 160.761 -15.7699C160.501 -15.2443 160.371 -14.6809 160.371 -14.0795V-13.1136C160.371 -12.2898 160.513 -11.5914 160.797 -11.0185C161.086 -10.4503 161.486 -10.017 161.997 -9.71875C162.509 -9.42519 163.103 -9.27841 163.78 -9.27841C164.22 -9.27841 164.618 -9.33996 164.973 -9.46307C165.333 -9.59091 165.643 -9.7803 165.903 -10.0312C166.164 -10.2869 166.365 -10.6042 166.507 -10.983L168.126 -10.5284C167.956 -9.97917 167.67 -9.49621 167.267 -9.07955C166.865 -8.66761 166.367 -8.34564 165.776 -8.11364C165.184 -7.88636 164.518 -7.77273 163.78 -7.77273ZM185.392 -18.9091L181.358 -8H179.653L175.619 -18.9091H177.438L180.449 -10.2159H180.562L183.574 -18.9091H185.392ZM190.483 -7.74432C189.791 -7.74432 189.164 -7.87453 188.6 -8.13494C188.037 -8.40009 187.59 -8.78125 187.258 -9.27841C186.927 -9.7803 186.761 -10.3864 186.761 -11.0966C186.761 -11.7216 186.884 -12.2282 187.13 -12.6165C187.377 -13.0095 187.706 -13.3172 188.118 -13.5398C188.529 -13.7623 188.984 -13.928 189.481 -14.0369C189.983 -14.1506 190.487 -14.2405 190.994 -14.3068C191.657 -14.392 192.194 -14.456 192.606 -14.4986C193.023 -14.5459 193.326 -14.6241 193.515 -14.733C193.709 -14.8419 193.806 -15.0313 193.806 -15.3011V-15.358C193.806 -16.0587 193.615 -16.6032 193.231 -16.9915C192.852 -17.3797 192.277 -17.5739 191.505 -17.5739C190.705 -17.5739 190.078 -17.3987 189.623 -17.0483C189.169 -16.6979 188.849 -16.3239 188.664 -15.9261L187.074 -16.4943C187.358 -17.1572 187.736 -17.6733 188.21 -18.0426C188.688 -18.4167 189.209 -18.6771 189.772 -18.8239C190.341 -18.9754 190.899 -19.0511 191.449 -19.0511C191.799 -19.0511 192.201 -19.0085 192.656 -18.9233C193.115 -18.8428 193.558 -18.6747 193.984 -18.419C194.415 -18.1634 194.772 -17.7775 195.056 -17.2614C195.341 -16.7453 195.483 -16.054 195.483 -15.1875V-8H193.806V-9.47727H193.721C193.608 -9.24053 193.418 -8.98722 193.153 -8.71733C192.888 -8.44744 192.535 -8.2178 192.095 -8.02841C191.654 -7.83902 191.117 -7.74432 190.483 -7.74432ZM190.738 -9.25C191.401 -9.25 191.96 -9.38021 192.414 -9.64062C192.874 -9.90104 193.219 -10.2372 193.451 -10.6491C193.688 -11.0611 193.806 -11.4943 193.806 -11.9489V-13.483C193.735 -13.3977 193.579 -13.3196 193.338 -13.2486C193.101 -13.1823 192.826 -13.1231 192.514 -13.071C192.206 -13.0237 191.905 -12.9811 191.612 -12.9432C191.323 -12.91 191.089 -12.8816 190.909 -12.858C190.473 -12.8011 190.066 -12.7088 189.687 -12.581C189.313 -12.4579 189.01 -12.2708 188.778 -12.0199C188.551 -11.7737 188.437 -11.4375 188.437 -11.0114C188.437 -10.429 188.653 -9.98864 189.083 -9.69034C189.519 -9.39678 190.071 -9.25 190.738 -9.25ZM198.542 -8V-18.9091H200.161V-17.2614H200.275C200.474 -17.8011 200.834 -18.2391 201.354 -18.5753C201.875 -18.9115 202.462 -19.0795 203.116 -19.0795C203.239 -19.0795 203.393 -19.0772 203.577 -19.0724C203.762 -19.0677 203.902 -19.0606 203.996 -19.0511V-17.3466C203.94 -17.3608 203.809 -17.3821 203.606 -17.4105C203.407 -17.4437 203.196 -17.4602 202.974 -17.4602C202.443 -17.4602 201.97 -17.349 201.553 -17.1264C201.141 -16.9086 200.815 -16.6056 200.573 -16.2173C200.336 -15.8338 200.218 -15.3958 200.218 -14.9034V-8H198.542ZM205.983 -8V-18.9091H207.659V-8H205.983ZM206.836 -20.7273C206.509 -20.7273 206.227 -20.8385 205.99 -21.0611C205.758 -21.2836 205.642 -21.5511 205.642 -21.8636C205.642 -22.1761 205.758 -22.4437 205.99 -22.6662C206.227 -22.8887 206.509 -23 206.836 -23C207.162 -23 207.442 -22.8887 207.674 -22.6662C207.91 -22.4437 208.029 -22.1761 208.029 -21.8636C208.029 -21.5511 207.91 -21.2836 207.674 -21.0611C207.442 -20.8385 207.162 -20.7273 206.836 -20.7273ZM213.94 -7.74432C213.248 -7.74432 212.621 -7.87453 212.058 -8.13494C211.494 -8.40009 211.047 -8.78125 210.715 -9.27841C210.384 -9.7803 210.218 -10.3864 210.218 -11.0966C210.218 -11.7216 210.341 -12.2282 210.587 -12.6165C210.834 -13.0095 211.163 -13.3172 211.575 -13.5398C211.987 -13.7623 212.441 -13.928 212.938 -14.0369C213.44 -14.1506 213.944 -14.2405 214.451 -14.3068C215.114 -14.392 215.651 -14.456 216.063 -14.4986C216.48 -14.5459 216.783 -14.6241 216.972 -14.733C217.166 -14.8419 217.263 -15.0313 217.263 -15.3011V-15.358C217.263 -16.0587 217.072 -16.6032 216.688 -16.9915C216.309 -17.3797 215.734 -17.5739 214.962 -17.5739C214.162 -17.5739 213.535 -17.3987 213.08 -17.0483C212.626 -16.6979 212.306 -16.3239 212.121 -15.9261L210.531 -16.4943C210.815 -17.1572 211.193 -17.6733 211.667 -18.0426C212.145 -18.4167 212.666 -18.6771 213.229 -18.8239C213.798 -18.9754 214.356 -19.0511 214.906 -19.0511C215.256 -19.0511 215.658 -19.0085 216.113 -18.9233C216.572 -18.8428 217.015 -18.6747 217.441 -18.419C217.872 -18.1634 218.229 -17.7775 218.513 -17.2614C218.798 -16.7453 218.94 -16.054 218.94 -15.1875V-8H217.263V-9.47727H217.178C217.065 -9.24053 216.875 -8.98722 216.61 -8.71733C216.345 -8.44744 215.992 -8.2178 215.552 -8.02841C215.112 -7.83902 214.574 -7.74432 213.94 -7.74432ZM214.195 -9.25C214.858 -9.25 215.417 -9.38021 215.871 -9.64062C216.331 -9.90104 216.676 -10.2372 216.908 -10.6491C217.145 -11.0611 217.263 -11.4943 217.263 -11.9489V-13.483C217.192 -13.3977 217.036 -13.3196 216.795 -13.2486C216.558 -13.1823 216.283 -13.1231 215.971 -13.071C215.663 -13.0237 215.362 -12.9811 215.069 -12.9432C214.78 -12.91 214.546 -12.8816 214.366 -12.858C213.93 -12.8011 213.523 -12.7088 213.144 -12.581C212.77 -12.4579 212.467 -12.2708 212.235 -12.0199C212.008 -11.7737 211.894 -11.4375 211.894 -11.0114C211.894 -10.429 212.11 -9.98864 212.54 -9.69034C212.976 -9.39678 213.528 -9.25 214.195 -9.25ZM226.431 -7.77273C225.408 -7.77273 224.527 -8.0142 223.789 -8.49716C223.05 -8.98011 222.482 -9.64536 222.084 -10.4929C221.686 -11.3404 221.488 -12.3087 221.488 -13.3977C221.488 -14.5057 221.691 -15.4834 222.098 -16.331C222.51 -17.1832 223.083 -17.8485 223.817 -18.3267C224.556 -18.8097 225.417 -19.0511 226.402 -19.0511C227.169 -19.0511 227.861 -18.9091 228.476 -18.625C229.092 -18.3409 229.596 -17.9432 229.989 -17.4318C230.382 -16.9205 230.626 -16.3239 230.721 -15.642H229.044C228.917 -16.1392 228.632 -16.5795 228.192 -16.9631C227.757 -17.3513 227.169 -17.5455 226.431 -17.5455C225.777 -17.5455 225.204 -17.375 224.712 -17.0341C224.224 -16.6979 223.843 -16.2221 223.569 -15.6065C223.299 -14.9957 223.164 -14.2784 223.164 -13.4545C223.164 -12.6117 223.296 -11.8778 223.561 -11.2528C223.831 -10.6278 224.21 -10.1425 224.698 -9.79688C225.19 -9.45123 225.768 -9.27841 226.431 -9.27841C226.866 -9.27841 227.262 -9.35417 227.617 -9.50568C227.972 -9.6572 228.273 -9.875 228.519 -10.1591C228.765 -10.4432 228.94 -10.7841 229.044 -11.1818H230.721C230.626 -10.5379 230.391 -9.95786 230.017 -9.44176C229.648 -8.9304 229.158 -8.5232 228.547 -8.22017C227.941 -7.92188 227.236 -7.77273 226.431 -7.77273ZM225.635 -8.05682H227.027L226.914 -7.48864C227.283 -7.43182 227.622 -7.27794 227.929 -7.02699C228.237 -6.77131 228.391 -6.36648 228.391 -5.8125C228.391 -5.2017 228.138 -4.70455 227.631 -4.32102C227.129 -3.93277 226.388 -3.73864 225.408 -3.73864L225.351 -4.84659C225.792 -4.84659 226.156 -4.91761 226.445 -5.05966C226.739 -5.19697 226.885 -5.42898 226.885 -5.75568C226.885 -6.08239 226.765 -6.30492 226.523 -6.4233C226.282 -6.54167 225.891 -6.62216 225.351 -6.66477L225.635 -8.05682ZM237.603 -7.77273C236.618 -7.77273 235.754 -8.0071 235.01 -8.47585C234.272 -8.9446 233.694 -9.60038 233.277 -10.4432C232.865 -11.286 232.659 -12.2708 232.659 -13.3977C232.659 -14.5341 232.865 -15.526 233.277 -16.3736C233.694 -17.2211 234.272 -17.8793 235.01 -18.348C235.754 -18.8168 236.618 -19.0511 237.603 -19.0511C238.587 -19.0511 239.449 -18.8168 240.188 -18.348C240.931 -17.8793 241.509 -17.2211 241.921 -16.3736C242.337 -15.526 242.546 -14.5341 242.546 -13.3977C242.546 -12.2708 242.337 -11.286 241.921 -10.4432C241.509 -9.60038 240.931 -8.9446 240.188 -8.47585C239.449 -8.0071 238.587 -7.77273 237.603 -7.77273ZM237.603 -9.27841C238.351 -9.27841 238.966 -9.47017 239.449 -9.85369C239.932 -10.2372 240.29 -10.7415 240.522 -11.3665C240.754 -11.9915 240.87 -12.6686 240.87 -13.3977C240.87 -14.1269 240.754 -14.8063 240.522 -15.4361C240.29 -16.0658 239.932 -16.5748 239.449 -16.9631C238.966 -17.3513 238.351 -17.5455 237.603 -17.5455C236.855 -17.5455 236.239 -17.3513 235.756 -16.9631C235.273 -16.5748 234.916 -16.0658 234.684 -15.4361C234.452 -14.8063 234.336 -14.1269 234.336 -13.3977C234.336 -12.6686 234.452 -11.9915 234.684 -11.3665C234.916 -10.7415 235.273 -10.2372 235.756 -9.85369C236.239 -9.47017 236.855 -9.27841 237.603 -9.27841ZM235.415 -20.2159L234.108 -20.2727C234.108 -20.9972 234.314 -21.589 234.726 -22.0483C235.143 -22.5123 235.657 -22.7443 236.267 -22.7443C236.537 -22.7443 236.776 -22.697 236.985 -22.6023C237.193 -22.5123 237.392 -22.4081 237.581 -22.2898C237.771 -22.1714 237.965 -22.0649 238.164 -21.9702C238.367 -21.8802 238.597 -21.8352 238.853 -21.8352C239.123 -21.8352 239.35 -21.9394 239.534 -22.1477C239.724 -22.3608 239.819 -22.6165 239.819 -22.9148L241.097 -22.8011C241.097 -22.0625 240.889 -21.4754 240.472 -21.0398C240.06 -20.6042 239.549 -20.3864 238.938 -20.3864C238.611 -20.3864 238.341 -20.4313 238.128 -20.5213C237.915 -20.616 237.726 -20.7225 237.56 -20.8409C237.394 -20.9593 237.219 -21.0634 237.034 -21.1534C236.85 -21.2481 236.623 -21.2955 236.353 -21.2955C236.083 -21.2955 235.858 -21.1889 235.678 -20.9759C235.503 -20.7675 235.415 -20.5142 235.415 -20.2159ZM249.678 -7.77273C248.627 -7.77273 247.72 -8.00473 246.958 -8.46875C246.201 -8.9375 245.616 -9.59091 245.204 -10.429C244.797 -11.2718 244.593 -12.2519 244.593 -13.3693C244.593 -14.4867 244.797 -15.4716 245.204 -16.3239C245.616 -17.1809 246.189 -17.8485 246.923 -18.3267C247.661 -18.8097 248.523 -19.0511 249.508 -19.0511C250.076 -19.0511 250.637 -18.9564 251.191 -18.767C251.745 -18.5777 252.249 -18.2699 252.704 -17.8438C253.158 -17.4223 253.521 -16.8636 253.79 -16.1676C254.06 -15.4716 254.195 -14.6146 254.195 -13.5966V-12.8864H245.786V-14.3352H252.491C252.491 -14.9508 252.368 -15.5 252.121 -15.983C251.88 -16.4659 251.534 -16.8471 251.085 -17.1264C250.639 -17.4058 250.114 -17.5455 249.508 -17.5455C248.84 -17.5455 248.263 -17.3797 247.775 -17.0483C247.292 -16.7216 246.92 -16.2955 246.66 -15.7699C246.399 -15.2443 246.269 -14.6809 246.269 -14.0795V-13.1136C246.269 -12.2898 246.411 -11.5914 246.695 -11.0185C246.984 -10.4503 247.384 -10.017 247.896 -9.71875C248.407 -9.42519 249.001 -9.27841 249.678 -9.27841C250.119 -9.27841 250.516 -9.33996 250.871 -9.46307C251.231 -9.59091 251.541 -9.7803 251.802 -10.0312C252.062 -10.2869 252.263 -10.6042 252.406 -10.983L254.025 -10.5284C253.854 -9.97917 253.568 -9.49621 253.165 -9.07955C252.763 -8.66761 252.266 -8.34564 251.674 -8.11364C251.082 -7.88636 250.417 -7.77273 249.678 -7.77273ZM264.472 -16.4659L262.967 -16.0398C262.872 -16.2907 262.732 -16.5346 262.548 -16.7713C262.368 -17.0128 262.121 -17.2116 261.809 -17.3679C261.496 -17.5241 261.096 -17.6023 260.609 -17.6023C259.941 -17.6023 259.385 -17.4484 258.94 -17.1406C258.499 -16.8376 258.279 -16.4517 258.279 -15.983C258.279 -15.5663 258.431 -15.2372 258.734 -14.9957C259.037 -14.7543 259.51 -14.553 260.154 -14.392L261.773 -13.9943C262.749 -13.7576 263.476 -13.3954 263.954 -12.9077C264.432 -12.4247 264.671 -11.8021 264.671 -11.0398C264.671 -10.4148 264.491 -9.85606 264.131 -9.36364C263.776 -8.87121 263.279 -8.48295 262.64 -8.19886C262.001 -7.91477 261.257 -7.77273 260.41 -7.77273C259.297 -7.77273 258.376 -8.0142 257.647 -8.49716C256.918 -8.98011 256.456 -9.68561 256.262 -10.6136L257.853 -11.0114C258.004 -10.4242 258.291 -9.9839 258.712 -9.69034C259.138 -9.39678 259.695 -9.25 260.381 -9.25C261.163 -9.25 261.783 -9.41572 262.242 -9.74716C262.706 -10.0833 262.938 -10.4858 262.938 -10.9545C262.938 -11.3333 262.806 -11.6506 262.54 -11.9062C262.275 -12.1667 261.868 -12.3608 261.319 -12.4886L259.501 -12.9148C258.502 -13.1515 257.768 -13.5185 257.299 -14.0156C256.835 -14.5175 256.603 -15.1449 256.603 -15.8977C256.603 -16.5133 256.776 -17.0578 257.121 -17.5312C257.472 -18.0047 257.948 -18.3764 258.549 -18.6463C259.155 -18.9162 259.842 -19.0511 260.609 -19.0511C261.688 -19.0511 262.536 -18.8144 263.151 -18.3409C263.772 -17.8674 264.212 -17.2424 264.472 -16.4659ZM276.939 -7.77273C276.029 -7.77273 275.227 -8.00237 274.531 -8.46165C273.835 -8.92566 273.29 -9.57907 272.897 -10.4219C272.504 -11.2694 272.308 -12.2708 272.308 -13.4261C272.308 -14.572 272.504 -15.5663 272.897 -16.4091C273.29 -17.2519 273.837 -17.9029 274.538 -18.3622C275.239 -18.8215 276.048 -19.0511 276.967 -19.0511C277.677 -19.0511 278.238 -18.9328 278.65 -18.696C279.067 -18.464 279.384 -18.1989 279.602 -17.9006C279.824 -17.607 279.997 -17.3655 280.12 -17.1761H280.262V-22.5455H281.939V-8H280.319V-9.67614H280.12C279.997 -9.47727 279.822 -9.22633 279.595 -8.9233C279.368 -8.625 279.043 -8.35748 278.622 -8.12074C278.2 -7.88873 277.639 -7.77273 276.939 -7.77273ZM277.166 -9.27841C277.838 -9.27841 278.406 -9.4536 278.87 -9.80398C279.334 -10.1591 279.687 -10.6491 279.929 -11.2741C280.17 -11.9039 280.291 -12.6307 280.291 -13.4545C280.291 -14.2689 280.172 -14.9815 279.936 -15.5923C279.699 -16.2079 279.349 -16.6861 278.885 -17.027C278.421 -17.3726 277.848 -17.5455 277.166 -17.5455C276.456 -17.5455 275.864 -17.3632 275.39 -16.9986C274.922 -16.6387 274.569 -16.1487 274.332 -15.5284C274.1 -14.9129 273.984 -14.2216 273.984 -13.4545C273.984 -12.678 274.102 -11.9725 274.339 -11.3381C274.581 -10.7083 274.936 -10.2064 275.404 -9.83239C275.878 -9.46307 276.465 -9.27841 277.166 -9.27841ZM288.451 -7.74432C287.76 -7.74432 287.133 -7.87453 286.569 -8.13494C286.006 -8.40009 285.558 -8.78125 285.227 -9.27841C284.895 -9.7803 284.73 -10.3864 284.73 -11.0966C284.73 -11.7216 284.853 -12.2282 285.099 -12.6165C285.345 -13.0095 285.674 -13.3172 286.086 -13.5398C286.498 -13.7623 286.953 -13.928 287.45 -14.0369C287.952 -14.1506 288.456 -14.2405 288.963 -14.3068C289.626 -14.392 290.163 -14.456 290.575 -14.4986C290.992 -14.5459 291.295 -14.6241 291.484 -14.733C291.678 -14.8419 291.775 -15.0313 291.775 -15.3011V-15.358C291.775 -16.0587 291.583 -16.6032 291.2 -16.9915C290.821 -17.3797 290.246 -17.5739 289.474 -17.5739C288.674 -17.5739 288.047 -17.3987 287.592 -17.0483C287.137 -16.6979 286.818 -16.3239 286.633 -15.9261L285.042 -16.4943C285.326 -17.1572 285.705 -17.6733 286.179 -18.0426C286.657 -18.4167 287.178 -18.6771 287.741 -18.8239C288.309 -18.9754 288.868 -19.0511 289.417 -19.0511C289.768 -19.0511 290.17 -19.0085 290.625 -18.9233C291.084 -18.8428 291.527 -18.6747 291.953 -18.419C292.384 -18.1634 292.741 -17.7775 293.025 -17.2614C293.309 -16.7453 293.451 -16.054 293.451 -15.1875V-8H291.775V-9.47727H291.69C291.576 -9.24053 291.387 -8.98722 291.122 -8.71733C290.857 -8.44744 290.504 -8.2178 290.064 -8.02841C289.623 -7.83902 289.086 -7.74432 288.451 -7.74432ZM288.707 -9.25C289.37 -9.25 289.929 -9.38021 290.383 -9.64062C290.842 -9.90104 291.188 -10.2372 291.42 -10.6491C291.657 -11.0611 291.775 -11.4943 291.775 -11.9489V-13.483C291.704 -13.3977 291.548 -13.3196 291.306 -13.2486C291.07 -13.1823 290.795 -13.1231 290.483 -13.071C290.175 -13.0237 289.874 -12.9811 289.581 -12.9432C289.292 -12.91 289.057 -12.8816 288.877 -12.858C288.442 -12.8011 288.035 -12.7088 287.656 -12.581C287.282 -12.4579 286.979 -12.2708 286.747 -12.0199C286.52 -11.7737 286.406 -11.4375 286.406 -11.0114C286.406 -10.429 286.621 -9.98864 287.052 -9.69034C287.488 -9.39678 288.039 -9.25 288.707 -9.25ZM302.363 -8V-22.5455H304.039V-17.1761H304.181C304.304 -17.3655 304.475 -17.607 304.692 -17.9006C304.915 -18.1989 305.232 -18.464 305.644 -18.696C306.061 -18.9328 306.624 -19.0511 307.335 -19.0511C308.253 -19.0511 309.063 -18.8215 309.763 -18.3622C310.464 -17.9029 311.011 -17.2519 311.404 -16.4091C311.797 -15.5663 311.994 -14.572 311.994 -13.4261C311.994 -12.2708 311.797 -11.2694 311.404 -10.4219C311.011 -9.57907 310.467 -8.92566 309.771 -8.46165C309.075 -8.00237 308.272 -7.77273 307.363 -7.77273C306.662 -7.77273 306.101 -7.88873 305.68 -8.12074C305.258 -8.35748 304.934 -8.625 304.707 -8.9233C304.479 -9.22633 304.304 -9.47727 304.181 -9.67614H303.982V-8H302.363ZM304.011 -13.4545C304.011 -12.6307 304.131 -11.9039 304.373 -11.2741C304.614 -10.6491 304.967 -10.1591 305.431 -9.80398C305.895 -9.4536 306.463 -9.27841 307.136 -9.27841C307.836 -9.27841 308.421 -9.46307 308.89 -9.83239C309.363 -10.2064 309.719 -10.7083 309.955 -11.3381C310.197 -11.9725 310.317 -12.678 310.317 -13.4545C310.317 -14.2216 310.199 -14.9129 309.962 -15.5284C309.73 -16.1487 309.378 -16.6387 308.904 -16.9986C308.435 -17.3632 307.846 -17.5455 307.136 -17.5455C306.454 -17.5455 305.881 -17.3726 305.417 -17.027C304.953 -16.6861 304.603 -16.2079 304.366 -15.5923C304.129 -14.9815 304.011 -14.2689 304.011 -13.4545ZM319.131 -7.77273C318.08 -7.77273 317.174 -8.00473 316.411 -8.46875C315.654 -8.9375 315.069 -9.59091 314.657 -10.429C314.25 -11.2718 314.046 -12.2519 314.046 -13.3693C314.046 -14.4867 314.25 -15.4716 314.657 -16.3239C315.069 -17.1809 315.642 -17.8485 316.376 -18.3267C317.114 -18.8097 317.976 -19.0511 318.961 -19.0511C319.529 -19.0511 320.09 -18.9564 320.644 -18.767C321.198 -18.5777 321.702 -18.2699 322.157 -17.8438C322.612 -17.4223 322.974 -16.8636 323.244 -16.1676C323.513 -15.4716 323.648 -14.6146 323.648 -13.5966V-12.8864H315.239V-14.3352H321.944C321.944 -14.9508 321.821 -15.5 321.575 -15.983C321.333 -16.4659 320.987 -16.8471 320.538 -17.1264C320.093 -17.4058 319.567 -17.5455 318.961 -17.5455C318.293 -17.5455 317.716 -17.3797 317.228 -17.0483C316.745 -16.7216 316.373 -16.2955 316.113 -15.7699C315.853 -15.2443 315.722 -14.6809 315.722 -14.0795V-13.1136C315.722 -12.2898 315.864 -11.5914 316.148 -11.0185C316.437 -10.4503 316.837 -10.017 317.349 -9.71875C317.86 -9.42519 318.454 -9.27841 319.131 -9.27841C319.572 -9.27841 319.969 -9.33996 320.325 -9.46307C320.684 -9.59091 320.995 -9.7803 321.255 -10.0312C321.515 -10.2869 321.717 -10.6042 321.859 -10.983L323.478 -10.5284C323.308 -9.97917 323.021 -9.49621 322.619 -9.07955C322.216 -8.66761 321.719 -8.34564 321.127 -8.11364C320.535 -7.88636 319.87 -7.77273 319.131 -7.77273ZM326.425 -8V-22.5455H328.102V-17.1761H328.244C328.367 -17.3655 328.537 -17.607 328.755 -17.9006C328.978 -18.1989 329.295 -18.464 329.707 -18.696C330.123 -18.9328 330.687 -19.0511 331.397 -19.0511C332.316 -19.0511 333.125 -18.8215 333.826 -18.3622C334.527 -17.9029 335.074 -17.2519 335.467 -16.4091C335.86 -15.5663 336.056 -14.572 336.056 -13.4261C336.056 -12.2708 335.86 -11.2694 335.467 -10.4219C335.074 -9.57907 334.529 -8.92566 333.833 -8.46165C333.137 -8.00237 332.335 -7.77273 331.425 -7.77273C330.725 -7.77273 330.164 -7.88873 329.742 -8.12074C329.321 -8.35748 328.996 -8.625 328.769 -8.9233C328.542 -9.22633 328.367 -9.47727 328.244 -9.67614H328.045V-8H326.425ZM328.073 -13.4545C328.073 -12.6307 328.194 -11.9039 328.435 -11.2741C328.677 -10.6491 329.03 -10.1591 329.494 -9.80398C329.958 -9.4536 330.526 -9.27841 331.198 -9.27841C331.899 -9.27841 332.484 -9.46307 332.952 -9.83239C333.426 -10.2064 333.781 -10.7083 334.018 -11.3381C334.259 -11.9725 334.38 -12.678 334.38 -13.4545C334.38 -14.2216 334.262 -14.9129 334.025 -15.5284C333.793 -16.1487 333.44 -16.6387 332.967 -16.9986C332.498 -17.3632 331.908 -17.5455 331.198 -17.5455C330.516 -17.5455 329.943 -17.3726 329.479 -17.027C329.015 -16.6861 328.665 -16.2079 328.428 -15.5923C328.192 -14.9815 328.073 -14.2689 328.073 -13.4545ZM338.62 -8V-18.9091H340.296V-8H338.62ZM339.472 -20.7273C339.146 -20.7273 338.864 -20.8385 338.627 -21.0611C338.395 -21.2836 338.279 -21.5511 338.279 -21.8636C338.279 -22.1761 338.395 -22.4437 338.627 -22.6662C338.864 -22.8887 339.146 -23 339.472 -23C339.799 -23 340.078 -22.8887 340.31 -22.6662C340.547 -22.4437 340.665 -22.1761 340.665 -21.8636C340.665 -21.5511 340.547 -21.2836 340.31 -21.0611C340.078 -20.8385 339.799 -20.7273 339.472 -20.7273ZM347.485 -7.77273C346.576 -7.77273 345.774 -8.00237 345.078 -8.46165C344.382 -8.92566 343.837 -9.57907 343.444 -10.4219C343.051 -11.2694 342.855 -12.2708 342.855 -13.4261C342.855 -14.572 343.051 -15.5663 343.444 -16.4091C343.837 -17.2519 344.384 -17.9029 345.085 -18.3622C345.786 -18.8215 346.595 -19.0511 347.514 -19.0511C348.224 -19.0511 348.785 -18.9328 349.197 -18.696C349.614 -18.464 349.931 -18.1989 350.149 -17.9006C350.371 -17.607 350.544 -17.3655 350.667 -17.1761H350.809V-22.5455H352.485V-8H350.866V-9.67614H350.667C350.544 -9.47727 350.369 -9.22633 350.142 -8.9233C349.914 -8.625 349.59 -8.35748 349.169 -8.12074C348.747 -7.88873 348.186 -7.77273 347.485 -7.77273ZM347.713 -9.27841C348.385 -9.27841 348.953 -9.4536 349.417 -9.80398C349.881 -10.1591 350.234 -10.6491 350.475 -11.2741C350.717 -11.9039 350.838 -12.6307 350.838 -13.4545C350.838 -14.2689 350.719 -14.9815 350.483 -15.5923C350.246 -16.2079 349.895 -16.6861 349.431 -17.027C348.967 -17.3726 348.395 -17.5455 347.713 -17.5455C347.002 -17.5455 346.411 -17.3632 345.937 -16.9986C345.468 -16.6387 345.116 -16.1487 344.879 -15.5284C344.647 -14.9129 344.531 -14.2216 344.531 -13.4545C344.531 -12.678 344.649 -11.9725 344.886 -11.3381C345.127 -10.7083 345.483 -10.2064 345.951 -9.83239C346.425 -9.46307 347.012 -9.27841 347.713 -9.27841ZM358.998 -7.74432C358.307 -7.74432 357.68 -7.87453 357.116 -8.13494C356.553 -8.40009 356.105 -8.78125 355.774 -9.27841C355.442 -9.7803 355.277 -10.3864 355.277 -11.0966C355.277 -11.7216 355.4 -12.2282 355.646 -12.6165C355.892 -13.0095 356.221 -13.3172 356.633 -13.5398C357.045 -13.7623 357.5 -13.928 357.997 -14.0369C358.499 -14.1506 359.003 -14.2405 359.51 -14.3068C360.172 -14.392 360.71 -14.456 361.122 -14.4986C361.538 -14.5459 361.842 -14.6241 362.031 -14.733C362.225 -14.8419 362.322 -15.0313 362.322 -15.3011V-15.358C362.322 -16.0587 362.13 -16.6032 361.747 -16.9915C361.368 -17.3797 360.793 -17.5739 360.021 -17.5739C359.221 -17.5739 358.593 -17.3987 358.139 -17.0483C357.684 -16.6979 357.365 -16.3239 357.18 -15.9261L355.589 -16.4943C355.873 -17.1572 356.252 -17.6733 356.725 -18.0426C357.204 -18.4167 357.725 -18.6771 358.288 -18.8239C358.856 -18.9754 359.415 -19.0511 359.964 -19.0511C360.315 -19.0511 360.717 -19.0085 361.172 -18.9233C361.631 -18.8428 362.074 -18.6747 362.5 -18.419C362.931 -18.1634 363.288 -17.7775 363.572 -17.2614C363.856 -16.7453 363.998 -16.054 363.998 -15.1875V-8H362.322V-9.47727H362.237C362.123 -9.24053 361.934 -8.98722 361.669 -8.71733C361.404 -8.44744 361.051 -8.2178 360.61 -8.02841C360.17 -7.83902 359.633 -7.74432 358.998 -7.74432ZM359.254 -9.25C359.917 -9.25 360.475 -9.38021 360.93 -9.64062C361.389 -9.90104 361.735 -10.2372 361.967 -10.6491C362.204 -11.0611 362.322 -11.4943 362.322 -11.9489V-13.483C362.251 -13.3977 362.095 -13.3196 361.853 -13.2486C361.617 -13.1823 361.342 -13.1231 361.029 -13.071C360.722 -13.0237 360.421 -12.9811 360.127 -12.9432C359.839 -12.91 359.604 -12.8816 359.424 -12.858C358.989 -12.8011 358.582 -12.7088 358.203 -12.581C357.829 -12.4579 357.526 -12.2708 357.294 -12.0199C357.066 -11.7737 356.953 -11.4375 356.953 -11.0114C356.953 -10.429 357.168 -9.98864 357.599 -9.69034C358.035 -9.39678 358.586 -9.25 359.254 -9.25ZM377.54 -18.9091V-17.4886H371.66V-18.9091H377.54ZM373.421 -8V-20.4148C373.421 -21.0398 373.568 -21.5606 373.862 -21.9773C374.155 -22.3939 374.536 -22.7064 375.005 -22.9148C375.474 -23.1231 375.969 -23.2273 376.489 -23.2273C376.901 -23.2273 377.237 -23.1941 377.498 -23.1278C377.758 -23.0616 377.952 -23 378.08 -22.9432L377.597 -21.4943C377.512 -21.5227 377.394 -21.5582 377.242 -21.6009C377.095 -21.6435 376.901 -21.6648 376.66 -21.6648C376.106 -21.6648 375.706 -21.5251 375.46 -21.2457C375.218 -20.9664 375.097 -20.5568 375.097 -20.017V-8H373.421ZM382.787 -7.74432C382.096 -7.74432 381.469 -7.87453 380.905 -8.13494C380.342 -8.40009 379.894 -8.78125 379.563 -9.27841C379.231 -9.7803 379.066 -10.3864 379.066 -11.0966C379.066 -11.7216 379.189 -12.2282 379.435 -12.6165C379.681 -13.0095 380.01 -13.3172 380.422 -13.5398C380.834 -13.7623 381.289 -13.928 381.786 -14.0369C382.288 -14.1506 382.792 -14.2405 383.299 -14.3068C383.962 -14.392 384.499 -14.456 384.911 -14.4986C385.328 -14.5459 385.631 -14.6241 385.82 -14.733C386.014 -14.8419 386.111 -15.0313 386.111 -15.3011V-15.358C386.111 -16.0587 385.919 -16.6032 385.536 -16.9915C385.157 -17.3797 384.582 -17.5739 383.81 -17.5739C383.01 -17.5739 382.382 -17.3987 381.928 -17.0483C381.473 -16.6979 381.154 -16.3239 380.969 -15.9261L379.378 -16.4943C379.662 -17.1572 380.041 -17.6733 380.515 -18.0426C380.993 -18.4167 381.514 -18.6771 382.077 -18.8239C382.645 -18.9754 383.204 -19.0511 383.753 -19.0511C384.104 -19.0511 384.506 -19.0085 384.961 -18.9233C385.42 -18.8428 385.863 -18.6747 386.289 -18.419C386.72 -18.1634 387.077 -17.7775 387.361 -17.2614C387.645 -16.7453 387.787 -16.054 387.787 -15.1875V-8H386.111V-9.47727H386.026C385.912 -9.24053 385.723 -8.98722 385.458 -8.71733C385.193 -8.44744 384.84 -8.2178 384.4 -8.02841C383.959 -7.83902 383.422 -7.74432 382.787 -7.74432ZM383.043 -9.25C383.706 -9.25 384.265 -9.38021 384.719 -9.64062C385.178 -9.90104 385.524 -10.2372 385.756 -10.6491C385.993 -11.0611 386.111 -11.4943 386.111 -11.9489V-13.483C386.04 -13.3977 385.884 -13.3196 385.642 -13.2486C385.406 -13.1823 385.131 -13.1231 384.819 -13.071C384.511 -13.0237 384.21 -12.9811 383.917 -12.9432C383.628 -12.91 383.393 -12.8816 383.213 -12.858C382.778 -12.8011 382.371 -12.7088 381.992 -12.581C381.618 -12.4579 381.315 -12.2708 381.083 -12.0199C380.855 -11.7737 380.742 -11.4375 380.742 -11.0114C380.742 -10.429 380.957 -9.98864 381.388 -9.69034C381.824 -9.39678 382.375 -9.25 383.043 -9.25ZM399.376 -18.9091L395.342 -8H393.638L389.604 -18.9091H391.422L394.433 -10.2159H394.547L397.558 -18.9091H399.376ZM405.63 -7.77273C404.645 -7.77273 403.781 -8.0071 403.038 -8.47585C402.299 -8.9446 401.721 -9.60038 401.305 -10.4432C400.893 -11.286 400.687 -12.2708 400.687 -13.3977C400.687 -14.5341 400.893 -15.526 401.305 -16.3736C401.721 -17.2211 402.299 -17.8793 403.038 -18.348C403.781 -18.8168 404.645 -19.0511 405.63 -19.0511C406.615 -19.0511 407.477 -18.8168 408.215 -18.348C408.959 -17.8793 409.536 -17.2211 409.948 -16.3736C410.365 -15.526 410.573 -14.5341 410.573 -13.3977C410.573 -12.2708 410.365 -11.286 409.948 -10.4432C409.536 -9.60038 408.959 -8.9446 408.215 -8.47585C407.477 -8.0071 406.615 -7.77273 405.63 -7.77273ZM405.63 -9.27841C406.378 -9.27841 406.994 -9.47017 407.477 -9.85369C407.96 -10.2372 408.317 -10.7415 408.549 -11.3665C408.781 -11.9915 408.897 -12.6686 408.897 -13.3977C408.897 -14.1269 408.781 -14.8063 408.549 -15.4361C408.317 -16.0658 407.96 -16.5748 407.477 -16.9631C406.994 -17.3513 406.378 -17.5455 405.63 -17.5455C404.882 -17.5455 404.266 -17.3513 403.783 -16.9631C403.3 -16.5748 402.943 -16.0658 402.711 -15.4361C402.479 -14.8063 402.363 -14.1269 402.363 -13.3977C402.363 -12.6686 402.479 -11.9915 402.711 -11.3665C402.943 -10.7415 403.3 -10.2372 403.783 -9.85369C404.266 -9.47017 404.882 -9.27841 405.63 -9.27841ZM413.132 -8V-18.9091H414.751V-17.2614H414.865C415.064 -17.8011 415.423 -18.2391 415.944 -18.5753C416.465 -18.9115 417.052 -19.0795 417.706 -19.0795C417.829 -19.0795 417.983 -19.0772 418.167 -19.0724C418.352 -19.0677 418.492 -19.0606 418.586 -19.0511V-17.3466C418.529 -17.3608 418.399 -17.3821 418.196 -17.4105C417.997 -17.4437 417.786 -17.4602 417.564 -17.4602C417.033 -17.4602 416.56 -17.349 416.143 -17.1264C415.731 -16.9086 415.404 -16.6056 415.163 -16.2173C414.926 -15.8338 414.808 -15.3958 414.808 -14.9034V-8H413.132ZM420.573 -8V-18.9091H422.249V-8H420.573ZM421.425 -20.7273C421.099 -20.7273 420.817 -20.8385 420.58 -21.0611C420.348 -21.2836 420.232 -21.5511 420.232 -21.8636C420.232 -22.1761 420.348 -22.4437 420.58 -22.6662C420.817 -22.8887 421.099 -23 421.425 -23C421.752 -23 422.031 -22.8887 422.263 -22.6662C422.5 -22.4437 422.619 -22.1761 422.619 -21.8636C422.619 -21.5511 422.5 -21.2836 422.263 -21.0611C422.031 -20.8385 421.752 -20.7273 421.425 -20.7273ZM430.064 -18.9091V-17.4886H424.41V-18.9091H430.064ZM426.058 -21.5227H427.734V-11.125C427.734 -10.6515 427.803 -10.2964 427.94 -10.0597C428.082 -9.82765 428.262 -9.6714 428.48 -9.59091C428.702 -9.51515 428.937 -9.47727 429.183 -9.47727C429.368 -9.47727 429.519 -9.48674 429.637 -9.50568C429.756 -9.52936 429.85 -9.5483 429.922 -9.5625L430.262 -8.05682C430.149 -8.0142 429.99 -7.97159 429.787 -7.92898C429.583 -7.88163 429.325 -7.85795 429.012 -7.85795C428.539 -7.85795 428.075 -7.95975 427.62 -8.16335C427.171 -8.36695 426.797 -8.67708 426.498 -9.09375C426.205 -9.51042 426.058 -10.036 426.058 -10.6705V-21.5227ZM435.795 -7.74432C435.104 -7.74432 434.476 -7.87453 433.913 -8.13494C433.35 -8.40009 432.902 -8.78125 432.571 -9.27841C432.239 -9.7803 432.074 -10.3864 432.074 -11.0966C432.074 -11.7216 432.197 -12.2282 432.443 -12.6165C432.689 -13.0095 433.018 -13.3172 433.43 -13.5398C433.842 -13.7623 434.297 -13.928 434.794 -14.0369C435.296 -14.1506 435.8 -14.2405 436.306 -14.3068C436.969 -14.392 437.507 -14.456 437.919 -14.4986C438.335 -14.5459 438.638 -14.6241 438.828 -14.733C439.022 -14.8419 439.119 -15.0313 439.119 -15.3011V-15.358C439.119 -16.0587 438.927 -16.6032 438.544 -16.9915C438.165 -17.3797 437.59 -17.5739 436.818 -17.5739C436.018 -17.5739 435.39 -17.3987 434.936 -17.0483C434.481 -16.6979 434.162 -16.3239 433.977 -15.9261L432.386 -16.4943C432.67 -17.1572 433.049 -17.6733 433.522 -18.0426C434.001 -18.4167 434.521 -18.6771 435.085 -18.8239C435.653 -18.9754 436.212 -19.0511 436.761 -19.0511C437.111 -19.0511 437.514 -19.0085 437.968 -18.9233C438.428 -18.8428 438.87 -18.6747 439.297 -18.419C439.727 -18.1634 440.085 -17.7775 440.369 -17.2614C440.653 -16.7453 440.795 -16.054 440.795 -15.1875V-8H439.119V-9.47727H439.034C438.92 -9.24053 438.731 -8.98722 438.466 -8.71733C438.2 -8.44744 437.848 -8.2178 437.407 -8.02841C436.967 -7.83902 436.43 -7.74432 435.795 -7.74432ZM436.051 -9.25C436.714 -9.25 437.272 -9.38021 437.727 -9.64062C438.186 -9.90104 438.532 -10.2372 438.764 -10.6491C439.001 -11.0611 439.119 -11.4943 439.119 -11.9489V-13.483C439.048 -13.3977 438.892 -13.3196 438.65 -13.2486C438.413 -13.1823 438.139 -13.1231 437.826 -13.071C437.519 -13.0237 437.218 -12.9811 436.924 -12.9432C436.636 -12.91 436.401 -12.8816 436.221 -12.858C435.786 -12.8011 435.378 -12.7088 435 -12.581C434.626 -12.4579 434.323 -12.2708 434.091 -12.0199C433.863 -11.7737 433.75 -11.4375 433.75 -11.0114C433.75 -10.429 433.965 -9.98864 434.396 -9.69034C434.832 -9.39678 435.383 -9.25 436.051 -9.25ZM-9.89205 23.2273C-10.9432 23.2273 -11.8499 22.9953 -12.6122 22.5312C-13.3698 22.0625 -13.9545 21.4091 -14.3665 20.571C-14.7737 19.7282 -14.9773 18.7481 -14.9773 17.6307C-14.9773 16.5133 -14.7737 15.5284 -14.3665 14.6761C-13.9545 13.8191 -13.3816 13.1515 -12.6477 12.6733C-11.9091 12.1903 -11.0473 11.9489 -10.0625 11.9489C-9.49432 11.9489 -8.93324 12.0436 -8.37926 12.233C-7.82528 12.4223 -7.32102 12.7301 -6.86648 13.1562C-6.41193 13.5777 -6.04972 14.1364 -5.77983 14.8324C-5.50994 15.5284 -5.375 16.3854 -5.375 17.4034V18.1136H-13.7841V16.6648H-7.07955C-7.07955 16.0492 -7.20265 15.5 -7.44886 15.017C-7.69034 14.5341 -8.03598 14.1529 -8.4858 13.8736C-8.93087 13.5942 -9.45644 13.4545 -10.0625 13.4545C-10.7301 13.4545 -11.3078 13.6203 -11.7955 13.9517C-12.2784 14.2784 -12.6501 14.7045 -12.9105 15.2301C-13.1709 15.7557 -13.3011 16.3191 -13.3011 16.9205V17.8864C-13.3011 18.7102 -13.1591 19.4086 -12.875 19.9815C-12.5862 20.5497 -12.1861 20.983 -11.6747 21.2812C-11.1634 21.5748 -10.5691 21.7216 -9.89205 21.7216C-9.4517 21.7216 -9.05398 21.66 -8.69886 21.5369C-8.33901 21.4091 -8.02888 21.2197 -7.76847 20.9688C-7.50805 20.7131 -7.30682 20.3958 -7.16477 20.017L-5.54545 20.4716C-5.71591 21.0208 -6.00237 21.5038 -6.40483 21.9205C-6.80729 22.3324 -7.30445 22.6544 -7.89631 22.8864C-8.48816 23.1136 -9.15341 23.2273 -9.89205 23.2273ZM-1.14915 16.4375V23H-2.82528V12.0909H-1.20597V13.7955H-1.06392C-0.808238 13.2415 -0.419981 12.7964 0.100852 12.4602C0.621686 12.1193 1.29403 11.9489 2.1179 11.9489C2.85653 11.9489 3.50284 12.1004 4.05682 12.4034C4.6108 12.7017 5.04167 13.1562 5.34943 13.767C5.6572 14.3731 5.81108 15.1402 5.81108 16.0682V23H4.13494V16.1818C4.13494 15.3248 3.91241 14.6572 3.46733 14.179C3.02225 13.696 2.41146 13.4545 1.63494 13.4545C1.09991 13.4545 0.621686 13.5705 0.200284 13.8026C-0.216383 14.0346 -0.545454 14.3731 -0.786932 14.8182C-1.02841 15.2633 -1.14915 15.803 -1.14915 16.4375ZM13.6183 12.0909V13.5114H7.96484V12.0909H13.6183ZM9.61257 9.47727H11.2887V19.875C11.2887 20.3485 11.3574 20.7036 11.4947 20.9403C11.6367 21.1723 11.8166 21.3286 12.0344 21.4091C12.257 21.4848 12.4914 21.5227 12.7376 21.5227C12.9222 21.5227 13.0737 21.5133 13.1921 21.4943C13.3105 21.4706 13.4052 21.4517 13.4762 21.4375L13.8171 22.9432C13.7035 22.9858 13.5449 23.0284 13.3413 23.071C13.1377 23.1184 12.8796 23.142 12.5671 23.142C12.0936 23.142 11.6296 23.0402 11.1751 22.8366C10.7253 22.633 10.3512 22.3229 10.0529 21.9062C9.75935 21.4896 9.61257 20.964 9.61257 20.3295V9.47727ZM16.1396 23V12.0909H17.7589V13.7386H17.8725C18.0714 13.1989 18.4312 12.7609 18.9521 12.4247C19.4729 12.0885 20.06 11.9205 20.7134 11.9205C20.8365 11.9205 20.9904 11.9228 21.1751 11.9276C21.3597 11.9323 21.4994 11.9394 21.5941 11.9489V13.6534C21.5373 13.6392 21.4071 13.6179 21.2035 13.5895C21.0046 13.5563 20.7939 13.5398 20.5714 13.5398C20.0411 13.5398 19.5676 13.651 19.1509 13.8736C18.739 14.0914 18.4123 14.3944 18.1708 14.7827C17.9341 15.1662 17.8157 15.6042 17.8157 16.0966V23H16.1396ZM27.8228 23.2273C26.7717 23.2273 25.8649 22.9953 25.1026 22.5312C24.3451 22.0625 23.7603 21.4091 23.3484 20.571C22.9412 19.7282 22.7376 18.7481 22.7376 17.6307C22.7376 16.5133 22.9412 15.5284 23.3484 14.6761C23.7603 13.8191 24.3332 13.1515 25.0671 12.6733C25.8058 12.1903 26.6675 11.9489 27.6523 11.9489C28.2205 11.9489 28.7816 12.0436 29.3356 12.233C29.8896 12.4223 30.3938 12.7301 30.8484 13.1562C31.3029 13.5777 31.6651 14.1364 31.935 14.8324C32.2049 15.5284 32.3398 16.3854 32.3398 17.4034V18.1136H23.9308V16.6648H30.6353C30.6353 16.0492 30.5122 15.5 30.266 15.017C30.0245 14.5341 29.6789 14.1529 29.229 13.8736C28.784 13.5942 28.2584 13.4545 27.6523 13.4545C26.9847 13.4545 26.4071 13.6203 25.9194 13.9517C25.4364 14.2784 25.0647 14.7045 24.8043 15.2301C24.5439 15.7557 24.4137 16.3191 24.4137 16.9205V17.8864C24.4137 18.7102 24.5558 19.4086 24.8398 19.9815C25.1287 20.5497 25.5288 20.983 26.0401 21.2812C26.5515 21.5748 27.1457 21.7216 27.8228 21.7216C28.2631 21.7216 28.6609 21.66 29.016 21.5369C29.3758 21.4091 29.686 21.2197 29.9464 20.9688C30.2068 20.7131 30.408 20.3958 30.5501 20.017L32.1694 20.4716C31.9989 21.0208 31.7125 21.5038 31.31 21.9205C30.9076 22.3324 30.4104 22.6544 29.8185 22.8864C29.2267 23.1136 28.5614 23.2273 27.8228 23.2273ZM44.9464 23.2273C43.9615 23.2273 43.0974 22.9929 42.354 22.5241C41.6154 22.0554 41.0378 21.3996 40.6211 20.5568C40.2092 19.714 40.0032 18.7292 40.0032 17.6023C40.0032 16.4659 40.2092 15.474 40.6211 14.6264C41.0378 13.7789 41.6154 13.1207 42.354 12.652C43.0974 12.1832 43.9615 11.9489 44.9464 11.9489C45.9312 11.9489 46.793 12.1832 47.5316 12.652C48.275 13.1207 48.8526 13.7789 49.2646 14.6264C49.6812 15.474 49.8896 16.4659 49.8896 17.6023C49.8896 18.7292 49.6812 19.714 49.2646 20.5568C48.8526 21.3996 48.275 22.0554 47.5316 22.5241C46.793 22.9929 45.9312 23.2273 44.9464 23.2273ZM44.9464 21.7216C45.6945 21.7216 46.31 21.5298 46.793 21.1463C47.2759 20.7628 47.6334 20.2585 47.8654 19.6335C48.0974 19.0085 48.2134 18.3314 48.2134 17.6023C48.2134 16.8731 48.0974 16.1937 47.8654 15.5639C47.6334 14.9342 47.2759 14.4252 46.793 14.0369C46.31 13.6487 45.6945 13.4545 44.9464 13.4545C44.1983 13.4545 43.5827 13.6487 43.0998 14.0369C42.6168 14.4252 42.2594 14.9342 42.0273 15.5639C41.7953 16.1937 41.6793 16.8731 41.6793 17.6023C41.6793 18.3314 41.7953 19.0085 42.0273 19.6335C42.2594 20.2585 42.6168 20.7628 43.0998 21.1463C43.5827 21.5298 44.1983 21.7216 44.9464 21.7216ZM60.1754 14.5341L58.6697 14.9602C58.575 14.7093 58.4354 14.4654 58.2507 14.2287C58.0708 13.9872 57.8246 13.7884 57.5121 13.6321C57.1996 13.4759 56.7995 13.3977 56.3118 13.3977C55.6442 13.3977 55.0878 13.5516 54.6428 13.8594C54.2024 14.1624 53.9822 14.5483 53.9822 15.017C53.9822 15.4337 54.1338 15.7628 54.4368 16.0043C54.7398 16.2457 55.2133 16.447 55.8572 16.608L57.4766 17.0057C58.4519 17.2424 59.1787 17.6046 59.657 18.0923C60.1352 18.5753 60.3743 19.1979 60.3743 19.9602C60.3743 20.5852 60.1944 21.1439 59.8345 21.6364C59.4794 22.1288 58.9822 22.517 58.343 22.8011C57.7038 23.0852 56.9605 23.2273 56.1129 23.2273C55.0002 23.2273 54.0793 22.9858 53.3501 22.5028C52.621 22.0199 52.1593 21.3144 51.9652 20.3864L53.5561 19.9886C53.7076 20.5758 53.9941 21.0161 54.4155 21.3097C54.8416 21.6032 55.398 21.75 56.0845 21.75C56.8658 21.75 57.486 21.5843 57.9453 21.2528C58.4093 20.9167 58.6413 20.5142 58.6413 20.0455C58.6413 19.6667 58.5088 19.3494 58.2436 19.0938C57.9785 18.8333 57.5713 18.6392 57.022 18.5114L55.2038 18.0852C54.2048 17.8485 53.4709 17.4815 53.0021 16.9844C52.5381 16.4825 52.3061 15.8551 52.3061 15.1023C52.3061 14.4867 52.4789 13.9422 52.8246 13.4688C53.175 12.9953 53.6508 12.6236 54.2521 12.3537C54.8582 12.0838 55.5447 11.9489 56.3118 11.9489C57.3913 11.9489 58.2389 12.1856 58.8544 12.6591C59.4747 13.1326 59.915 13.7576 60.1754 14.5341ZM72.2156 23.1776C71.387 23.1776 70.6365 22.9645 69.9641 22.5384C69.2965 22.1075 68.7662 21.4754 68.3732 20.642C67.985 19.804 67.7908 18.7765 67.7908 17.5597C67.7908 16.3097 67.9921 15.2704 68.3945 14.4418C68.797 13.6084 69.332 12.9858 69.9996 12.5739C70.672 12.1572 71.4083 11.9489 72.2085 11.9489C72.8192 11.9489 73.3282 12.053 73.7354 12.2614C74.1474 12.465 74.4788 12.7206 74.7298 13.0284C74.9854 13.3314 75.1796 13.6297 75.3121 13.9233H75.4045V8.45455H78.4229V23H75.44V21.2528H75.3121C75.1701 21.5559 74.9689 21.8565 74.7085 22.1548C74.4528 22.4484 74.119 22.6922 73.707 22.8864C73.2998 23.0805 72.8027 23.1776 72.2156 23.1776ZM73.1744 20.7699C73.6621 20.7699 74.074 20.6373 74.4102 20.3722C74.7511 20.1023 75.0115 19.7259 75.1914 19.2429C75.3761 18.7599 75.4684 18.1941 75.4684 17.5455C75.4684 16.8968 75.3784 16.3333 75.1985 15.8551C75.0186 15.3769 74.7582 15.0076 74.4173 14.7472C74.0763 14.4867 73.6621 14.3565 73.1744 14.3565C72.6772 14.3565 72.2582 14.4915 71.9173 14.7614C71.5763 15.0312 71.3183 15.4053 71.1431 15.8835C70.9679 16.3617 70.8803 16.9157 70.8803 17.5455C70.8803 18.1799 70.9679 18.741 71.1431 19.2287C71.323 19.7116 71.5811 20.0904 71.9173 20.3651C72.2582 20.6349 72.6772 20.7699 73.1744 20.7699ZM85.8821 23.2131C84.7599 23.2131 83.794 22.9858 82.9844 22.5312C82.1795 22.072 81.5592 21.4233 81.1236 20.5852C80.688 19.7424 80.4702 18.7457 80.4702 17.5952C80.4702 16.473 80.688 15.4882 81.1236 14.6406C81.5592 13.7931 82.1723 13.1326 82.9631 12.6591C83.7585 12.1856 84.6913 11.9489 85.7614 11.9489C86.4811 11.9489 87.151 12.0649 87.7713 12.2969C88.3963 12.5241 88.9408 12.8674 89.4048 13.3267C89.8736 13.786 90.2382 14.3636 90.4986 15.0597C90.759 15.7509 90.8892 16.5606 90.8892 17.4886V18.3196H81.6776V16.4446H88.0412C88.0412 16.009 87.9465 15.6231 87.7571 15.2869C87.5677 14.9508 87.3049 14.688 86.9688 14.4986C86.6373 14.3045 86.2514 14.2074 85.8111 14.2074C85.3518 14.2074 84.9446 14.3139 84.5895 14.527C84.2391 14.7353 83.9645 15.017 83.7656 15.3722C83.5668 15.7225 83.465 16.1132 83.4602 16.544V18.3267C83.4602 18.8665 83.5597 19.3329 83.7585 19.7259C83.9621 20.1188 84.2486 20.4219 84.6179 20.6349C84.9872 20.848 85.4252 20.9545 85.9318 20.9545C86.268 20.9545 86.5758 20.9072 86.8551 20.8125C87.1345 20.7178 87.3736 20.5758 87.5724 20.3864C87.7713 20.197 87.9228 19.965 88.027 19.6903L90.8253 19.875C90.6832 20.5473 90.392 21.1345 89.9517 21.6364C89.5161 22.1335 88.9527 22.5218 88.2614 22.8011C87.5748 23.0758 86.7817 23.2131 85.8821 23.2131ZM102.741 12.0909L98.9272 23H95.5181L91.7042 12.0909H94.9002L97.1658 19.8963H97.2795L99.538 12.0909H102.741ZM113.366 15.2017L110.596 15.3722C110.549 15.1354 110.447 14.9223 110.291 14.733C110.135 14.5388 109.929 14.3849 109.673 14.2713C109.422 14.1529 109.121 14.0938 108.771 14.0938C108.302 14.0938 107.907 14.1932 107.585 14.392C107.263 14.5862 107.102 14.8466 107.102 15.1733C107.102 15.4337 107.206 15.6539 107.414 15.8338C107.623 16.0137 107.98 16.1581 108.487 16.267L110.461 16.6648C111.522 16.8826 112.313 17.233 112.833 17.7159C113.354 18.1989 113.615 18.8333 113.615 19.6193C113.615 20.3343 113.404 20.9616 112.983 21.5014C112.566 22.0412 111.993 22.4626 111.264 22.7656C110.539 23.0639 109.704 23.2131 108.757 23.2131C107.313 23.2131 106.162 22.9124 105.305 22.3111C104.453 21.705 103.953 20.8812 103.806 19.8395L106.782 19.6832C106.872 20.1236 107.09 20.4598 107.436 20.6918C107.781 20.919 108.224 21.0327 108.764 21.0327C109.294 21.0327 109.72 20.9309 110.042 20.7273C110.369 20.5189 110.535 20.2514 110.539 19.9247C110.535 19.6501 110.419 19.4252 110.191 19.25C109.964 19.0701 109.614 18.9328 109.14 18.8381L107.251 18.4616C106.186 18.2486 105.393 17.8793 104.872 17.3537C104.356 16.8281 104.098 16.1581 104.098 15.3438C104.098 14.643 104.287 14.0393 104.666 13.5327C105.049 13.026 105.587 12.6354 106.278 12.3608C106.974 12.0862 107.788 11.9489 108.721 11.9489C110.099 11.9489 111.183 12.2401 111.974 12.8224C112.77 13.4048 113.234 14.1979 113.366 15.2017ZM124.682 23.2557C123.991 23.2557 123.363 23.1255 122.8 22.8651C122.236 22.5999 121.789 22.2188 121.457 21.7216C121.126 21.2197 120.96 20.6136 120.96 19.9034C120.96 19.2784 121.083 18.7718 121.33 18.3835C121.576 17.9905 121.905 17.6828 122.317 17.4602C122.729 17.2377 123.183 17.072 123.68 16.9631C124.182 16.8494 124.687 16.7595 125.193 16.6932C125.856 16.608 126.393 16.544 126.805 16.5014C127.222 16.4541 127.525 16.3759 127.714 16.267C127.909 16.1581 128.006 15.9687 128.006 15.6989V15.642C128.006 14.9413 127.814 14.3968 127.43 14.0085C127.052 13.6203 126.476 13.4261 125.705 13.4261C124.904 13.4261 124.277 13.6013 123.822 13.9517C123.368 14.3021 123.048 14.6761 122.864 15.0739L121.273 14.5057C121.557 13.8428 121.936 13.3267 122.409 12.9574C122.887 12.5833 123.408 12.3229 123.972 12.1761C124.54 12.0246 125.098 11.9489 125.648 11.9489C125.998 11.9489 126.401 11.9915 126.855 12.0767C127.314 12.1572 127.757 12.3253 128.183 12.581C128.614 12.8366 128.972 13.2225 129.256 13.7386C129.54 14.2547 129.682 14.946 129.682 15.8125V23H128.006V21.5227H127.92C127.807 21.7595 127.617 22.0128 127.352 22.2827C127.087 22.5526 126.734 22.7822 126.294 22.9716C125.854 23.161 125.316 23.2557 124.682 23.2557ZM124.938 21.75C125.6 21.75 126.159 21.6198 126.614 21.3594C127.073 21.099 127.419 20.7628 127.651 20.3509C127.887 19.9389 128.006 19.5057 128.006 19.0511V17.517C127.935 17.6023 127.778 17.6804 127.537 17.7514C127.3 17.8177 127.026 17.8769 126.713 17.929C126.405 17.9763 126.105 18.0189 125.811 18.0568C125.522 18.09 125.288 18.1184 125.108 18.142C124.672 18.1989 124.265 18.2912 123.886 18.419C123.512 18.5421 123.209 18.7292 122.977 18.9801C122.75 19.2263 122.636 19.5625 122.636 19.9886C122.636 20.571 122.852 21.0114 123.283 21.3097C123.718 21.6032 124.27 21.75 124.938 21.75ZM137.173 23.2273C136.188 23.2273 135.324 22.9929 134.581 22.5241C133.842 22.0554 133.264 21.3996 132.848 20.5568C132.436 19.714 132.23 18.7292 132.23 17.6023C132.23 16.4659 132.436 15.474 132.848 14.6264C133.264 13.7789 133.842 13.1207 134.581 12.652C135.324 12.1832 136.188 11.9489 137.173 11.9489C138.158 11.9489 139.02 12.1832 139.758 12.652C140.502 13.1207 141.079 13.7789 141.491 14.6264C141.908 15.474 142.116 16.4659 142.116 17.6023C142.116 18.7292 141.908 19.714 141.491 20.5568C141.079 21.3996 140.502 22.0554 139.758 22.5241C139.02 22.9929 138.158 23.2273 137.173 23.2273ZM137.173 21.7216C137.921 21.7216 138.537 21.5298 139.02 21.1463C139.502 20.7628 139.86 20.2585 140.092 19.6335C140.324 19.0085 140.44 18.3314 140.44 17.6023C140.44 16.8731 140.324 16.1937 140.092 15.5639C139.86 14.9342 139.502 14.4252 139.02 14.0369C138.537 13.6487 137.921 13.4545 137.173 13.4545C136.425 13.4545 135.809 13.6487 135.326 14.0369C134.843 14.4252 134.486 14.9342 134.254 15.5639C134.022 16.1937 133.906 16.8731 133.906 17.6023C133.906 18.3314 134.022 19.0085 134.254 19.6335C134.486 20.2585 134.843 20.7628 135.326 21.1463C135.809 21.5298 136.425 21.7216 137.173 21.7216ZM150.3 23V12.0909H151.919V13.7386H152.033C152.232 13.1989 152.591 12.7609 153.112 12.4247C153.633 12.0885 154.22 11.9205 154.874 11.9205C154.997 11.9205 155.151 11.9228 155.335 11.9276C155.52 11.9323 155.66 11.9394 155.754 11.9489V13.6534C155.697 13.6392 155.567 13.6179 155.364 13.5895C155.165 13.5563 154.954 13.5398 154.732 13.5398C154.201 13.5398 153.728 13.651 153.311 13.8736C152.899 14.0914 152.572 14.3944 152.331 14.7827C152.094 15.1662 151.976 15.6042 151.976 16.0966V23H150.3ZM161.983 23.2273C160.932 23.2273 160.025 22.9953 159.263 22.5312C158.505 22.0625 157.92 21.4091 157.509 20.571C157.101 19.7282 156.898 18.7481 156.898 17.6307C156.898 16.5133 157.101 15.5284 157.509 14.6761C157.92 13.8191 158.493 13.1515 159.227 12.6733C159.966 12.1903 160.828 11.9489 161.812 11.9489C162.381 11.9489 162.942 12.0436 163.496 12.233C164.05 12.4223 164.554 12.7301 165.009 13.1562C165.463 13.5777 165.825 14.1364 166.095 14.8324C166.365 15.5284 166.5 16.3854 166.5 17.4034V18.1136H158.091V16.6648H164.795C164.795 16.0492 164.672 15.5 164.426 15.017C164.185 14.5341 163.839 14.1529 163.389 13.8736C162.944 13.5942 162.419 13.4545 161.812 13.4545C161.145 13.4545 160.567 13.6203 160.08 13.9517C159.597 14.2784 159.225 14.7045 158.964 15.2301C158.704 15.7557 158.574 16.3191 158.574 16.9205V17.8864C158.574 18.7102 158.716 19.4086 159 19.9815C159.289 20.5497 159.689 20.983 160.2 21.2812C160.712 21.5748 161.306 21.7216 161.983 21.7216C162.423 21.7216 162.821 21.66 163.176 21.5369C163.536 21.4091 163.846 21.2197 164.107 20.9688C164.367 20.7131 164.568 20.3958 164.71 20.017L166.33 20.4716C166.159 21.0208 165.873 21.5038 165.47 21.9205C165.068 22.3324 164.571 22.6544 163.979 22.8864C163.387 23.1136 162.722 23.2273 161.983 23.2273ZM173.169 23.2273C172.26 23.2273 171.457 22.9976 170.761 22.5384C170.065 22.0743 169.521 21.4209 169.128 20.5781C168.735 19.7306 168.538 18.7292 168.538 17.5739C168.538 16.428 168.735 15.4337 169.128 14.5909C169.521 13.7481 170.068 13.0971 170.768 12.6378C171.469 12.1785 172.279 11.9489 173.197 11.9489C173.908 11.9489 174.469 12.0672 174.881 12.304C175.297 12.536 175.615 12.8011 175.832 13.0994C176.055 13.393 176.228 13.6345 176.351 13.8239H176.493V8.45455H178.169V23H176.55V21.3239H176.351C176.228 21.5227 176.053 21.7737 175.825 22.0767C175.598 22.375 175.274 22.6425 174.852 22.8793C174.431 23.1113 173.87 23.2273 173.169 23.2273ZM173.396 21.7216C174.069 21.7216 174.637 21.5464 175.101 21.196C175.565 20.8409 175.918 20.3509 176.159 19.7259C176.401 19.0961 176.521 18.3693 176.521 17.5455C176.521 16.7311 176.403 16.0185 176.166 15.4077C175.929 14.7921 175.579 14.3139 175.115 13.973C174.651 13.6274 174.078 13.4545 173.396 13.4545C172.686 13.4545 172.094 13.6368 171.621 14.0014C171.152 14.3613 170.799 14.8513 170.562 15.4716C170.33 16.0871 170.214 16.7784 170.214 17.5455C170.214 18.322 170.333 19.0275 170.57 19.6619C170.811 20.2917 171.166 20.7936 171.635 21.1676C172.108 21.5369 172.696 21.7216 173.396 21.7216ZM185.903 23.2273C184.919 23.2273 184.054 22.9929 183.311 22.5241C182.572 22.0554 181.995 21.3996 181.578 20.5568C181.166 19.714 180.96 18.7292 180.96 17.6023C180.96 16.4659 181.166 15.474 181.578 14.6264C181.995 13.7789 182.572 13.1207 183.311 12.652C184.054 12.1832 184.919 11.9489 185.903 11.9489C186.888 11.9489 187.75 12.1832 188.489 12.652C189.232 13.1207 189.81 13.7789 190.222 14.6264C190.638 15.474 190.847 16.4659 190.847 17.6023C190.847 18.7292 190.638 19.714 190.222 20.5568C189.81 21.3996 189.232 22.0554 188.489 22.5241C187.75 22.9929 186.888 23.2273 185.903 23.2273ZM185.903 21.7216C186.652 21.7216 187.267 21.5298 187.75 21.1463C188.233 20.7628 188.59 20.2585 188.822 19.6335C189.054 19.0085 189.17 18.3314 189.17 17.6023C189.17 16.8731 189.054 16.1937 188.822 15.5639C188.59 14.9342 188.233 14.4252 187.75 14.0369C187.267 13.6487 186.652 13.4545 185.903 13.4545C185.155 13.4545 184.54 13.6487 184.057 14.0369C183.574 14.4252 183.216 14.9342 182.984 15.5639C182.752 16.1937 182.636 16.8731 182.636 17.6023C182.636 18.3314 182.752 19.0085 182.984 19.6335C183.216 20.2585 183.574 20.7628 184.057 21.1463C184.54 21.5298 185.155 21.7216 185.903 21.7216ZM193.405 23V12.0909H195.025V13.7386H195.138C195.337 13.1989 195.697 12.7609 196.218 12.4247C196.739 12.0885 197.326 11.9205 197.979 11.9205C198.102 11.9205 198.256 11.9228 198.441 11.9276C198.625 11.9323 198.765 11.9394 198.86 11.9489V13.6534C198.803 13.6392 198.673 13.6179 198.469 13.5895C198.27 13.5563 198.06 13.5398 197.837 13.5398C197.307 13.5398 196.833 13.651 196.417 13.8736C196.005 14.0914 195.678 14.3944 195.436 14.7827C195.2 15.1662 195.081 15.6042 195.081 16.0966V23H193.405ZM206.472 23V12.0909H208.091V13.7955H208.233C208.46 13.2131 208.827 12.7609 209.334 12.4389C209.84 12.1122 210.449 11.9489 211.159 11.9489C211.879 11.9489 212.478 12.1122 212.956 12.4389C213.439 12.7609 213.815 13.2131 214.085 13.7955H214.199C214.478 13.232 214.897 12.7846 215.456 12.4531C216.015 12.117 216.685 11.9489 217.466 11.9489C218.441 11.9489 219.239 12.2543 219.859 12.8651C220.48 13.4711 220.79 14.4157 220.79 15.6989V23H219.114V15.6989C219.114 14.8939 218.893 14.3187 218.453 13.973C218.013 13.6274 217.494 13.4545 216.898 13.4545C216.131 13.4545 215.536 13.6866 215.115 14.1506C214.694 14.6098 214.483 15.1922 214.483 15.8977V23H212.778V15.5284C212.778 14.9081 212.577 14.4086 212.175 14.0298C211.772 13.6463 211.254 13.4545 210.619 13.4545C210.184 13.4545 209.777 13.5705 209.398 13.8026C209.024 14.0346 208.721 14.3565 208.489 14.7685C208.261 15.1757 208.148 15.6468 208.148 16.1818V23H206.472ZM230.729 18.5398V12.0909H232.406V23H230.729V21.1534H230.616C230.36 21.7074 229.962 22.1785 229.423 22.5668C228.883 22.9503 228.201 23.142 227.377 23.142C226.695 23.142 226.089 22.9929 225.559 22.6946C225.029 22.3916 224.612 21.937 224.309 21.331C224.006 20.7202 223.854 19.9508 223.854 19.0227V12.0909H225.531V18.9091C225.531 19.7045 225.753 20.339 226.198 20.8125C226.648 21.286 227.221 21.5227 227.917 21.5227C228.334 21.5227 228.757 21.4162 229.188 21.2031C229.624 20.9901 229.988 20.6634 230.282 20.223C230.58 19.7827 230.729 19.2216 230.729 18.5398ZM237.152 16.4375V23H235.475V12.0909H237.095V13.7955H237.237C237.493 13.2415 237.881 12.7964 238.402 12.4602C238.922 12.1193 239.595 11.9489 240.419 11.9489C241.157 11.9489 241.804 12.1004 242.358 12.4034C242.912 12.7017 243.342 13.1562 243.65 13.767C243.958 14.3731 244.112 15.1402 244.112 16.0682V23H242.436V16.1818C242.436 15.3248 242.213 14.6572 241.768 14.179C241.323 13.696 240.712 13.4545 239.936 13.4545C239.401 13.4545 238.922 13.5705 238.501 13.8026C238.084 14.0346 237.755 14.3731 237.514 14.8182C237.272 15.2633 237.152 15.803 237.152 16.4375ZM251.294 23.2273C250.385 23.2273 249.582 22.9976 248.886 22.5384C248.19 22.0743 247.646 21.4209 247.253 20.5781C246.86 19.7306 246.663 18.7292 246.663 17.5739C246.663 16.428 246.86 15.4337 247.253 14.5909C247.646 13.7481 248.193 13.0971 248.893 12.6378C249.594 12.1785 250.404 11.9489 251.322 11.9489C252.033 11.9489 252.594 12.0672 253.006 12.304C253.422 12.536 253.74 12.8011 253.957 13.0994C254.18 13.393 254.353 13.6345 254.476 13.8239H254.618V8.45455H256.294V23H254.675V21.3239H254.476C254.353 21.5227 254.178 21.7737 253.95 22.0767C253.723 22.375 253.399 22.6425 252.977 22.8793C252.556 23.1113 251.995 23.2273 251.294 23.2273ZM251.521 21.7216C252.194 21.7216 252.762 21.5464 253.226 21.196C253.69 20.8409 254.043 20.3509 254.284 19.7259C254.526 19.0961 254.646 18.3693 254.646 17.5455C254.646 16.7311 254.528 16.0185 254.291 15.4077C254.054 14.7921 253.704 14.3139 253.24 13.973C252.776 13.6274 252.203 13.4545 251.521 13.4545C250.811 13.4545 250.219 13.6368 249.746 14.0014C249.277 14.3613 248.924 14.8513 248.688 15.4716C248.455 16.0871 248.339 16.7784 248.339 17.5455C248.339 18.322 248.458 19.0275 248.695 19.6619C248.936 20.2917 249.291 20.7936 249.76 21.1676C250.233 21.5369 250.821 21.7216 251.521 21.7216ZM264.028 23.2273C263.044 23.2273 262.179 22.9929 261.436 22.5241C260.697 22.0554 260.12 21.3996 259.703 20.5568C259.291 19.714 259.085 18.7292 259.085 17.6023C259.085 16.4659 259.291 15.474 259.703 14.6264C260.12 13.7789 260.697 13.1207 261.436 12.652C262.179 12.1832 263.044 11.9489 264.028 11.9489C265.013 11.9489 265.875 12.1832 266.614 12.652C267.357 13.1207 267.935 13.7789 268.347 14.6264C268.763 15.474 268.972 16.4659 268.972 17.6023C268.972 18.7292 268.763 19.714 268.347 20.5568C267.935 21.3996 267.357 22.0554 266.614 22.5241C265.875 22.9929 265.013 23.2273 264.028 23.2273ZM264.028 21.7216C264.777 21.7216 265.392 21.5298 265.875 21.1463C266.358 20.7628 266.715 20.2585 266.947 19.6335C267.179 19.0085 267.295 18.3314 267.295 17.6023C267.295 16.8731 267.179 16.1937 266.947 15.5639C266.715 14.9342 266.358 14.4252 265.875 14.0369C265.392 13.6487 264.777 13.4545 264.028 13.4545C263.28 13.4545 262.665 13.6487 262.182 14.0369C261.699 14.4252 261.341 14.9342 261.109 15.5639C260.877 16.1937 260.761 16.8731 260.761 17.6023C260.761 18.3314 260.877 19.0085 261.109 19.6335C261.341 20.2585 261.699 20.7628 262.182 21.1463C262.665 21.5298 263.28 21.7216 264.028 21.7216ZM273.746 8.45455L273.604 18.9091H271.956L271.814 8.45455H273.746ZM272.78 23.1136C272.43 23.1136 272.129 22.9882 271.878 22.7372C271.627 22.4863 271.502 22.1856 271.502 21.8352C271.502 21.4848 271.627 21.1842 271.878 20.9332C272.129 20.6823 272.43 20.5568 272.78 20.5568C273.131 20.5568 273.431 20.6823 273.682 20.9332C273.933 21.1842 274.059 21.4848 274.059 21.8352C274.059 22.0672 273.999 22.2803 273.881 22.4744C273.767 22.6686 273.614 22.8248 273.419 22.9432C273.23 23.0568 273.017 23.1136 272.78 23.1136Z" fill="#C7BAB3"/>
</g>
</g>
</g>
</g>
</g>
<g id="Button">
<rect x="-16" y="-16" width="56" height="56" rx="8" fill="#A45A49"/>
<g id="chevrons-down">
<path id="Vector" d="M7 13L12 18L17 13" stroke="white" stroke-width="2" stroke-linecap="round" stroke-linejoin="round"/>
<path id="Vector_2" d="M7 6L12 11L17 6" stroke="white" stroke-width="2" stroke-linecap="round" stroke-linejoin="round"/>
</g>
</g>
</g>
<defs>
<clipPath id="clip0_1_5">
<rect width="1440" height="1354" fill="white" transform="translate(-176 -439)"/>
</clipPath>
<clipPath id="clip1_1_5">
<rect width="1440" height="407" fill="white" transform="translate(-176 -371)"/>
</clipPath>
</defs>
</svg>
